<svg xmlns="http://www.w3.org/2000/svg" viewBox="0 0 248.97412 52.63623"><defs><style>.a{fill:#fff;}.b{fill:#0461ff;}</style></defs><title>faktisk-logoer</title><path class="a" d="M0,0H38.30713V10.729h-25.562V21.16992H34.13086V31.4668H12.74512V51.48438H0Z"/><path class="a" d="M49.897,52.42041c-3.67236,0-6.84033-.936-9.07275-2.88037A10.52094,10.52094,0,0,1,37.2959,41.1875a9.60758,9.60758,0,0,1,4.17627-8.49658c2.59228-1.72852,6.04883-2.59229,9.9375-3.09668,6.91211-.86377,9.36035-1.584,9.36035-4.104,0-2.44824-1.44043-3.96044-5.04-3.96044-3.74414,0-5.61719,1.65625-5.97656,4.75244H38.95215a11.61533,11.61533,0,0,1,4.32031-8.92871c2.73633-2.3042,6.76807-3.74463,12.38525-3.74463,5.61622,0,9.2168,1.0083,11.95313,3.02441,3.168,2.3042,4.67969,5.90479,4.67969,10.51318V45.72412c0,3.02393.21679,4.6084,1.29687,5.25635v.50391h-11.377a9.89734,9.89734,0,0,1-1.22461-4.1045h-.14453C58.60986,50.47607,55.51318,52.42041,49.897,52.42041Zm3.74414-7.48877c4.46485,0,7.417-2.59228,7.417-6.62451V33.915a27.15821,27.15821,0,0,1-6.04883,1.94385c-4.53614,1.08007-6.40821,2.16015-6.40821,4.96875C48.60107,43.85156,50.76123,44.93164,53.64111,44.93164Z"/><path class="a" d="M77.97412,0H89.56787V27.07422l10.94531-12.457h13.53711L101.08936,28.44238l14.47265,23.042H101.95264L93.09619,36.43506,89.56787,40.1792V51.48438H77.97412Z"/><path class="a" d="M132.19287,51.9165c-3.457,0-6.33691-.57617-8.4248-2.08838-2.08887-1.5122-3.3125-4.104-3.3125-8.06445V21.96191h-4.89649V14.61719h4.89649V2.95215h11.44922v11.665h6.69628v7.34472h-6.69628V39.24316c0,2.88038,1.584,3.60059,4.10449,3.60059,1.08008,0,2.08789-.07227,2.59179-.07227v8.56885A27.54857,27.54857,0,0,1,132.19287,51.9165Z"/><path class="a" d="M142.84717,0H154.5835V9.50488H142.84717Zm0,14.61719H154.5835V51.48438H142.84717Z"/><path class="a" d="M175.896,52.63623c-10.873,0-17.56934-4.896-17.92969-13.105h11.08984c.50391,3.67236,2.80762,5.47266,6.76758,5.47266,3.60059,0,5.76074-1.29639,5.76074-3.67237,0-1.65625-1.15136-2.59228-2.87988-3.24023-1.72852-.57617-4.03223-.792-6.48047-1.29639-3.168-.57568-6.48047-1.22412-9.001-2.87988-2.59277-1.65625-4.249-4.24854-4.249-8.56885a10.41385,10.41385,0,0,1,4.68164-8.85693,20.37334,20.37334,0,0,1,11.23242-2.95215c10.5127,0,16.05664,4.46435,16.63282,11.80908H180.72021c-.5039-3.38428-2.59179-4.32031-5.90429-4.32031-2.87988,0-5.11231,1.08008-5.11231,3.38428,0,1.36816,1.00879,2.01611,2.66407,2.52a38.67078,38.67078,0,0,0,6.19238,1.29638c3.3125.57569,6.69726,1.22412,9.50586,2.95215,2.73535,1.728,4.60742,4.46436,4.60742,9.2168A10.47,10.47,0,0,1,187.92139,49.54C184.897,51.55615,180.72021,52.63623,175.896,52.63623Z"/><path class="a" d="M196.48584,0h11.59375V27.07422l10.94531-12.457H232.562L219.60107,28.44238l14.47266,23.042H220.46436l-8.85645-15.04932-3.52832,3.74414V51.48438H196.48584Z"/><path class="b" d="M236.66162,39.38721h12.3125V51.48438h-12.3125Z"/></svg>